<svg width="49" height="48" viewBox="0 0 49 48" fill="none" xmlns="http://www.w3.org/2000/svg">
<path d="M25.3 10.6L27.1 14.3998C27.3 14.5998 27.5 14.7999 27.9 14.9999L31.7 15.6C32.5 15.8 32.7 16.7998 32.3 17.3998L29.5 20.1999C29.3 20.3999 29.1 20.7999 29.3 21.1999L29.9 25.1999C30.1 25.9999 29.3 26.5999 28.5 26.1999L24.9 24.1999C24.7 23.9999 24.3 23.9999 24.1 24.1999L20.5 26.1999C19.9 26.5999 19.1 25.9999 19.1 25.1999L19.7 21.1999C19.7 20.7999 19.7 20.5999 19.5 20.1999L16.7 17.3998C16.1 16.7998 16.5 15.8 17.3 15.6L21.1 14.9999C21.5 14.9999 21.7 14.7998 21.9 14.3998L23.7 10.6C24.1 9.8 24.9 9.8 25.3 10.6Z" stroke="white" stroke-linecap="round" stroke-linejoin="round"/>
<path d="M24.5 36C33.8888 36 41.5 28.3888 41.5 19C41.5 9.61116 33.8888 2 24.5 2C15.1112 2 7.5 9.61116 7.5 19C7.5 28.3888 15.1112 36 24.5 36Z" stroke="white" stroke-miterlimit="10" stroke-linecap="round" stroke-linejoin="round"/>
<path d="M11.1 29.3999L2.5 38H10.5V46L20.9 35.6001" stroke="white" stroke-miterlimit="10" stroke-linecap="round" stroke-linejoin="round"/>
<path d="M37.9 29.3999L46.5 38H38.5V46L28.1 35.6001" stroke="white" stroke-miterlimit="10" stroke-linecap="round" stroke-linejoin="round"/>
</svg>
