<svg width="24" height="24" viewBox="0 0 24 24" fill="none" xmlns="http://www.w3.org/2000/svg">
<g id="Account Menu/newspaper/Stroke10" clip-path="url(#clip0_1317_3215)">
<path id="Vector" d="M2 10H6V20.5C6 21.9 4.9 23 3.5 23C2.1 23 1 21.9 1 20.5V11C1 10.4 1.4 10 2 10Z" stroke="white" stroke-miterlimit="10" stroke-linecap="round" stroke-linejoin="round"/>
<path id="Vector_2" d="M6 10V2C6 1.4 6.4 1 7 1H22C22.6 1 23 1.4 23 2V20.5C23 21.9 21.9 23 20.5 23H3.5" stroke="white" stroke-miterlimit="10" stroke-linecap="round" stroke-linejoin="round"/>
<path id="Vector_3" d="M10 6H19" stroke="white" stroke-miterlimit="10" stroke-linecap="round" stroke-linejoin="round"/>
<path id="Vector_4" d="M10 10H19" stroke="white" stroke-miterlimit="10" stroke-linecap="round" stroke-linejoin="round"/>
<path id="Vector_5" d="M10 14H19" stroke="white" stroke-miterlimit="10" stroke-linecap="round" stroke-linejoin="round"/>
<path id="Vector_6" d="M10 18H19" stroke="white" stroke-miterlimit="10" stroke-linecap="round" stroke-linejoin="round"/>
</g>
<defs>
<clipPath id="clip0_1317_3215">
<rect width="24" height="24" fill="white"/>
</clipPath>
</defs>
</svg>
