<svg width="25" height="24" viewBox="0 0 25 24" fill="none" xmlns="http://www.w3.org/2000/svg">
<path d="M12.5 22C15.8137 22 18.5 19.3137 18.5 16C18.5 12.6863 15.8137 10 12.5 10C9.18629 10 6.5 12.6863 6.5 16C6.5 19.3137 9.18629 22 12.5 22Z" stroke="#8875FF" stroke-miterlimit="10" stroke-linecap="round" stroke-linejoin="round"/>
<path d="M12.5 14C11.4 14 10.5 14.9 10.5 16" stroke="#8875FF" stroke-miterlimit="10" stroke-linecap="round" stroke-linejoin="round"/>
<path d="M17 20H21.5C22.6 20 23.5 19.1 23.5 18V8C23.5 6.9 22.6 6 21.5 6H19.7C18.3 6 17.1 5.2 16.5 4C15.9 2.8 14.6 2 13.3 2H11.8C10.4 2 9.20001 2.8 8.60001 4C8.00001 5.2 6.69999 6 5.39999 6H3.5C2.4 6 1.5 6.9 1.5 8V18C1.5 19.1 2.4 20 3.5 20H8" stroke="#8875FF" stroke-miterlimit="10" stroke-linecap="round" stroke-linejoin="round"/>
</svg>
