<svg width="24" height="24" viewBox="0 0 24 24" fill="none" xmlns="http://www.w3.org/2000/svg">
<path d="M20 8.5C20.2 9.1 20.2 9.2 20.7 9.7L22.7 11.7C22.9 11.9 23 12.1 23 12.4V16.1C23 16.6 22.6 17 22.1 17.1L18 17.6C16 17.9 14 18 12 18C10 18 8 17.8 6 17.6L1.9 17.1C1.4 17 1 16.6 1 16.1V12.4C1 12.1 1.1 11.9 1.3 11.7L3.3 9.7C3.8 9.2 4.1 8.7 4.3 8L5.2 4.9C5.7 3.2 7.2 2 9 2H12H15" stroke="white" stroke-miterlimit="10" stroke-linecap="round" stroke-linejoin="round"/>
<path d="M1 16V16.1V20C1 21.1 1.9 22 3 22H5C6.1 22 7 21.1 7 20V17.7" stroke="white" stroke-miterlimit="10" stroke-linecap="round" stroke-linejoin="round"/>
<path d="M23 16V16.1V20C23 21.1 22.1 22 21 22H19C17.9 22 17 21.1 17 20V17.7" stroke="white" stroke-miterlimit="10" stroke-linecap="round" stroke-linejoin="round"/>
<path d="M1 6C1 6 5 10 12 10C19 10 23 6 23 6" stroke="white" stroke-miterlimit="10" stroke-linecap="round" stroke-linejoin="round"/>
<path d="M7.99995 13.4C5.89995 13.1 3.79995 12.5 1.69995 11.4" stroke="white" stroke-miterlimit="10" stroke-linecap="round" stroke-linejoin="round"/>
<path d="M16 13.3C19 12.8 21.3 11.8 22.3 11.4" stroke="white" stroke-miterlimit="10" stroke-linecap="round" stroke-linejoin="round"/>
<path d="M15.5 1C15.625 1 15.75 1.0625 15.8125 1.25L16.0625 2.3125C16.125 2.625 16.375 2.875 16.75 2.9375L17.8125 3.1875C17.9375 3.25 18 3.375 18 3.5C18 3.625 17.9375 3.75 17.75 3.8125L16.75 4.0625C16.375 4.125 16.125 4.375 16.0625 4.6875L15.8125 5.75C15.75 5.9375 15.625 6 15.5 6C15.375 6 15.25 5.9375 15.1875 5.75L14.9375 4.6875C14.875 4.375 14.625 4.125 14.3125 4.0625L13.25 3.8125C13.125 3.75 13 3.625 13 3.5C13 3.375 13.0625 3.25 13.25 3.1875L14.3125 2.9375C14.625 2.875 14.875 2.625 14.9375 2.3125L15.1875 1.25C15.25 1.0625 15.375 1 15.5 1Z" stroke="white" stroke-miterlimit="10" stroke-linecap="round" stroke-linejoin="round"/>
</svg>
