<svg width="16" height="16" viewBox="0 0 16 16" fill="none" xmlns="http://www.w3.org/2000/svg">
<g id="icon">
<path id="Vector" d="M15.3334 7.33329V5.33329C15.3334 3.86663 14.1334 2.66663 12.6667 2.66663H3.33335C1.86669 2.66663 0.666687 3.86663 0.666687 5.33329V10.6666C0.666687 12.1333 1.86669 13.3333 3.33335 13.3333H6.00002" stroke="white" stroke-miterlimit="10" stroke-linecap="round" stroke-linejoin="round"/>
<path id="Vector_2" d="M0.666687 6H15.3334" stroke="white" stroke-miterlimit="10" stroke-linecap="round" stroke-linejoin="round"/>
<path id="Vector_3" d="M12 15.3333C13.841 15.3333 15.3334 13.8409 15.3334 12C15.3334 10.159 13.841 8.66663 12 8.66663C10.1591 8.66663 8.66669 10.159 8.66669 12C8.66669 13.8409 10.1591 15.3333 12 15.3333Z" stroke="white" stroke-miterlimit="10" stroke-linecap="round" stroke-linejoin="round"/>
<path id="Vector_4" d="M12 10.6666V12L12.6667 12.6666" stroke="white" stroke-miterlimit="10" stroke-linecap="round" stroke-linejoin="round"/>
</g>
</svg>
