<svg width="24" height="24" viewBox="0 0 24 24" fill="none" xmlns="http://www.w3.org/2000/svg">
<g id="Union">
<path id="Union_2" fill-rule="evenodd" clip-rule="evenodd" d="M18.4955 8.67044C18.7895 9.38018 18.9408 10.1409 18.9408 10.9091H20.5772C20.7349 11.6111 20.8182 12.3413 20.8182 13.0909C20.8182 18.5635 16.3817 23 10.9091 23C5.43645 23 1 18.5635 1 13.0909C1 7.61827 5.43645 3.18182 10.9091 3.18182C11.6587 3.18182 12.3889 3.26506 13.0909 3.4228V5.05922C13.8591 5.05922 14.6198 5.21054 15.3296 5.50452C16.0393 5.7985 16.6842 6.2294 17.2274 6.77261C17.7706 7.31582 18.2015 7.96071 18.4955 8.67044ZM13.0909 2.40004C12.3859 2.25694 11.6563 2.18182 10.9091 2.18182C4.88417 2.18182 0 7.06598 0 13.0909C0 19.1158 4.88417 24 10.9091 24C16.934 24 21.8182 19.1158 21.8182 13.0909C21.8182 12.3437 21.7431 11.6141 21.6 10.9091H21.9408H24C24 9.89237 23.8579 8.88272 23.5794 7.90909C23.4655 7.51083 23.3287 7.11859 23.1696 6.73436C22.6214 5.41081 21.8178 4.2082 20.8048 3.1952C19.7918 2.1822 18.5892 1.37864 17.2656 0.830405C16.8814 0.671252 16.4892 0.534522 16.0909 0.420608C15.1173 0.142122 14.1076 0 13.0909 0V2.05922V2.40004ZM10.4091 18.4315C8.78722 18.2816 7.37463 17.4096 6.4958 16.14L6.61369 16.0719L9.45233 14.433L9.59695 14.3495C9.81658 14.5784 10.0955 14.75 10.4091 14.8395V14.9091V18.4315ZM5.54545 13.0909C5.54545 13.8661 5.70989 14.6028 6.00578 15.2682L6.11369 15.2059L8.95233 13.567L9.12938 13.4648C9.10417 13.3441 9.09091 13.2191 9.09091 13.0909C9.09091 12.9065 9.11836 12.7285 9.16939 12.5608L8.95233 12.4355L6.11369 10.7966L6.07122 10.7721C5.73423 11.4739 5.54545 12.2604 5.54545 13.0909ZM9.71406 11.7206C9.91249 11.5474 10.1489 11.4166 10.4091 11.3423V11.2727V7.75027C8.84188 7.89515 7.47008 8.71427 6.58646 9.91486L6.61369 9.93059L9.45233 11.5695L9.71406 11.7206ZM11.4091 11.2727V7.75027C13.0135 7.89858 14.413 8.75349 15.2937 10.0009L15.2602 10.0203L12.4216 11.6591L12.1851 11.7957C11.9713 11.5851 11.7057 11.427 11.4091 11.3423V11.2727ZM12.6774 12.6661C12.71 12.8024 12.7273 12.9446 12.7273 13.0909C12.7273 13.1987 12.7179 13.3042 12.6999 13.4069L12.9773 13.567L15.8159 15.2059L15.8349 15.2168C16.1166 14.565 16.2727 13.8462 16.2727 13.0909C16.2727 12.298 16.1007 11.5453 15.7919 10.868L15.7602 10.8863L12.9216 12.5252L12.6774 12.6661ZM11.4091 14.8395C11.7415 14.7446 12.035 14.5575 12.2602 14.3077L12.4773 14.433L15.3159 16.0719L15.3539 16.0939C14.4776 17.3885 13.0505 18.2798 11.4091 18.4315V14.9091V14.8395ZM17.2727 13.0909C17.2727 16.6054 14.4236 19.4545 10.9091 19.4545C7.39455 19.4545 4.54545 16.6054 4.54545 13.0909C4.54545 9.57637 7.39455 6.72727 10.9091 6.72727C14.4236 6.72727 17.2727 9.57637 17.2727 13.0909ZM10.9091 13.9091C11.361 13.9091 11.7273 13.5428 11.7273 13.0909C11.7273 12.639 11.361 12.2727 10.9091 12.2727C10.4572 12.2727 10.0909 12.639 10.0909 13.0909C10.0909 13.5428 10.4572 13.9091 10.9091 13.9091Z" fill="white"/>
</g>
</svg>
