<svg width="18" height="18" viewBox="0 0 18 18" fill="none" xmlns="http://www.w3.org/2000/svg">
<g id="icon" clip-path="url(#clip0_956_16161)">
<path id="Vector" d="M17.25 12.075V9.3C17.25 9.075 17.175 8.925 17.025 8.775L15.525 7.275C15.15 6.9 14.925 6.45 14.775 6L14.1 3.675C13.725 2.4 12.6 1.5 11.25 1.5H9H6.75C5.4 1.5 4.275 2.4 3.9 3.675L3.225 6C3.075 6.525 2.85 6.9 2.475 7.275L0.975 8.775C0.825 8.925 0.75 9.075 0.75 9.3V12.075C0.75 12.45 1.05 12.75 1.425 12.825L4.5 13.2C6 13.35 7.5 13.5 9 13.5C10.5 13.5 12 13.425 13.5 13.2L16.575 12.825C16.95 12.75 17.25 12.45 17.25 12.075Z" stroke="#D2D2D2" stroke-width="1.5" stroke-miterlimit="10" stroke-linecap="round" stroke-linejoin="round"/>
<path id="Vector_2" d="M0.75 12V12.075V15C0.75 15.825 1.425 16.5 2.25 16.5H3.75C4.575 16.5 5.25 15.825 5.25 15V13.275" stroke="#D2D2D2" stroke-width="1.5" stroke-miterlimit="10" stroke-linecap="round" stroke-linejoin="round"/>
<path id="Vector_3" d="M17.25 12V12.075V15C17.25 15.825 16.575 16.5 15.75 16.5H14.25C13.425 16.5 12.75 15.825 12.75 15V13.275" stroke="#D2D2D2" stroke-width="1.5" stroke-miterlimit="10" stroke-linecap="round" stroke-linejoin="round"/>
<path id="Vector_4" d="M0.75 4.5C0.75 4.5 3.75 7.5 9 7.5C14.25 7.5 17.25 4.5 17.25 4.5" stroke="#D2D2D2" stroke-width="1.5" stroke-miterlimit="10" stroke-linecap="round" stroke-linejoin="round"/>
<path id="Vector_5" d="M6.00002 10.05C4.42502 9.82505 2.85002 9.37505 1.27502 8.55005" stroke="#D2D2D2" stroke-width="1.5" stroke-miterlimit="10" stroke-linecap="round" stroke-linejoin="round"/>
<path id="Vector_6" d="M12 9.97505C14.25 9.60005 15.975 8.85005 16.725 8.55005" stroke="#D2D2D2" stroke-width="1.5" stroke-miterlimit="10" stroke-linecap="round" stroke-linejoin="round"/>
</g>
<defs>
<clipPath id="clip0_956_16161">
<rect width="18" height="18" fill="white"/>
</clipPath>
</defs>
</svg>
