<svg width="24" height="24" viewBox="0 0 24 24" fill="none" xmlns="http://www.w3.org/2000/svg">
<path d="M23 16.1V12.4C23 12.1 22.9 11.9 22.7 11.7L20.7 9.7C20.2 9.2 19.9 8.6 19.7 8L18.8 4.9C18.3 3.2 16.8 2 15 2H12H9C7.2 2 5.7 3.2 5.2 4.9L4.3 8C4.1 8.7 3.8 9.2 3.3 9.7L1.3 11.7C1.1 11.9 1 12.1 1 12.4V16.1C1 16.6 1.4 17 1.9 17.1L6 17.6C8 17.8 10 18 12 18C14 18 16 17.9 18 17.6L22.1 17.1C22.6 17 23 16.6 23 16.1Z" stroke="white" stroke-miterlimit="10" stroke-linecap="round" stroke-linejoin="round"/>
<path d="M1 16V16.1V20C1 21.1 1.9 22 3 22H5C6.1 22 7 21.1 7 20V17.7" stroke="white" stroke-miterlimit="10" stroke-linecap="round" stroke-linejoin="round"/>
<path d="M23 16V16.1V20C23 21.1 22.1 22 21 22H19C17.9 22 17 21.1 17 20V17.7" stroke="white" stroke-miterlimit="10" stroke-linecap="round" stroke-linejoin="round"/>
<path d="M1 6C1 6 5 10 12 10C19 10 23 6 23 6" stroke="white" stroke-miterlimit="10" stroke-linecap="round" stroke-linejoin="round"/>
<path d="M8.0002 13.4C5.9002 13.1 3.8002 12.5 1.7002 11.4" stroke="white" stroke-miterlimit="10" stroke-linecap="round" stroke-linejoin="round"/>
<path d="M16 13.3C19 12.8 21.3 11.8 22.3 11.4" stroke="white" stroke-miterlimit="10" stroke-linecap="round" stroke-linejoin="round"/>
</svg>
