<svg width="24" height="24" viewBox="0 0 24 24" fill="none" xmlns="http://www.w3.org/2000/svg">
<g clip-path="url(#clip0_1538_7952)">
<path d="M13.5999 1.09994C10.5999 1.59994 8.09991 3.90001 7.29991 6.80001C6.79991 8.50001 6.8999 10.0999 7.3999 11.5999L2.09991 16.9C1.29991 17.7 0.899902 18.6999 0.899902 19.6999V23H1.8999C4.0999 23 5.8999 21.2 5.8999 19H8.19991C9.29991 19 10.2999 18.6 10.9999 17.8L12.2999 16.5C13.7999 17 15.3999 17.0999 17.0999 16.5999C19.9999 15.7999 22.2999 13.3 22.7999 10.3C23.7999 4.90001 19.0999 0.199937 13.5999 1.09994Z" stroke="white" stroke-miterlimit="10" stroke-linecap="round" stroke-linejoin="round"/>
<path d="M16.5 10C17.8807 10 19 8.88071 19 7.5C19 6.11929 17.8807 5 16.5 5C15.1193 5 14 6.11929 14 7.5C14 8.88071 15.1193 10 16.5 10Z" stroke="white" stroke-miterlimit="10" stroke-linecap="round" stroke-linejoin="round"/>
</g>
<defs>
<clipPath id="clip0_1538_7952">
<rect width="24" height="24" fill="white"/>
</clipPath>
</defs>
</svg>
