<svg width="24" height="24" viewBox="0 0 24 24" fill="none" xmlns="http://www.w3.org/2000/svg">
<g id="icon">
<path id="Vector" d="M12 22C15.3137 22 18 19.3137 18 16C18 12.6863 15.3137 10 12 10C8.68629 10 6 12.6863 6 16C6 19.3137 8.68629 22 12 22Z" stroke="white" stroke-miterlimit="10" stroke-linecap="round" stroke-linejoin="round"/>
<path id="Vector_2" d="M12 14C10.9 14 10 14.9 10 16" stroke="white" stroke-miterlimit="10" stroke-linecap="round" stroke-linejoin="round"/>
<path id="Vector_3" d="M16.5 20H21C22.1 20 23 19.1 23 18V8C23 6.9 22.1 6 21 6H19.2C17.8 6 16.6 5.2 16 4C15.4 2.8 14.1 2 12.8 2H11.3C9.89999 2 8.70001 2.8 8.10001 4C7.50001 5.2 6.19999 6 4.89999 6H3C1.9 6 1 6.9 1 8V18C1 19.1 1.9 20 3 20H7.5" stroke="white" stroke-miterlimit="10" stroke-linecap="round" stroke-linejoin="round"/>
</g>
</svg>
