<svg width="24" height="24" viewBox="0 0 24 24" fill="none" xmlns="http://www.w3.org/2000/svg">
<g id="Account Menu/globe/Stroke10" clip-path="url(#clip0_1317_5741)">
<path id="Vector" d="M12 23C18.0751 23 23 18.0751 23 12C23 5.92487 18.0751 1 12 1C5.92487 1 1 5.92487 1 12C1 18.0751 5.92487 23 12 23Z" stroke="white" stroke-miterlimit="10" stroke-linecap="round" stroke-linejoin="round"/>
<path id="Vector_2" d="M12 16C18.0751 16 23 14.2091 23 12C23 9.79086 18.0751 8 12 8C5.92487 8 1 9.79086 1 12C1 14.2091 5.92487 16 12 16Z" stroke="white" stroke-miterlimit="10" stroke-linecap="round" stroke-linejoin="round"/>
<path id="Vector_3" d="M12 23C14.2091 23 16 18.0751 16 12C16 5.92487 14.2091 1 12 1C9.79086 1 8 5.92487 8 12C8 18.0751 9.79086 23 12 23Z" stroke="white" stroke-miterlimit="10" stroke-linecap="round" stroke-linejoin="round"/>
</g>
<defs>
<clipPath id="clip0_1317_5741">
<rect width="24" height="24" fill="white"/>
</clipPath>
</defs>
</svg>
