<svg width="24" height="24" viewBox="0 0 24 24" fill="none" xmlns="http://www.w3.org/2000/svg">
<g id="icon" clip-path="url(#clip0_2_25)">
<path id="Vector" d="M12 14.8C12 15.6 12.3 16.3 12.8 16.8L13.1 17.0999C15.4 19.3999 13.5 23.3 10.3 22.8H10.2C5.59999 22.1 1.8 18.2999 1.1 13.6999C-0.0999998 6.19989 6.29999 -0.100085 13.7 1.09992C18.3 1.79992 22.1 5.59989 22.8 10.1999V10.3C23.2 13.5 19.3 15.2999 17.1 13.0999L16.8 12.8C16.3 12.3 15.6 11.9999 14.8 11.9999C13.3 11.9999 12 13.3 12 14.8Z" stroke="white" stroke-miterlimit="10" stroke-linecap="round" stroke-linejoin="round"/>
<path id="Vector_2" d="M12 8C13.1046 8 14 7.10457 14 6C14 4.89543 13.1046 4 12 4C10.8954 4 10 4.89543 10 6C10 7.10457 10.8954 8 12 8Z" stroke="white" stroke-miterlimit="10" stroke-linecap="round" stroke-linejoin="round"/>
<path id="Vector_3" d="M6.60001 11.5C7.70458 11.5 8.60001 10.6046 8.60001 9.5C8.60001 8.39543 7.70458 7.5 6.60001 7.5C5.49544 7.5 4.60001 8.39543 4.60001 9.5C4.60001 10.6046 5.49544 11.5 6.60001 11.5Z" stroke="white" stroke-miterlimit="10" stroke-linecap="round" stroke-linejoin="round"/>
<path id="Vector_4" d="M7.39999 17.9C8.50456 17.9 9.39999 17.0046 9.39999 15.9C9.39999 14.7955 8.50456 13.9 7.39999 13.9C6.29542 13.9 5.39999 14.7955 5.39999 15.9C5.39999 17.0046 6.29542 17.9 7.39999 17.9Z" stroke="white" stroke-miterlimit="10" stroke-linecap="round" stroke-linejoin="round"/>
</g>
<defs>
<clipPath id="clip0_2_25">
<rect width="24" height="24" fill="white"/>
</clipPath>
</defs>
</svg>
