<svg width="24" height="24" viewBox="0 0 24 24" fill="none" xmlns="http://www.w3.org/2000/svg">
<g id="Account Menu/question_circle/Stroke10" clip-path="url(#clip0_1317_3938)">
<path id="Vector" d="M12 17.5V18M12 15V14.8C12 14 12.5 13.2 13.2 12.9C14.5 12.4 15.3 11.2 15.3 9.70001C15.2 8.00001 13.8 6.6 12.1 6.5C10.2 6.4 8.7 7.89999 8.7 9.79999M23 12C23 18.1 18.1 23 12 23C5.9 23 1 18.1 1 12C1 5.9 5.9 1 12 1C18.1 1 23 5.9 23 12Z" stroke="white" stroke-miterlimit="10" stroke-linecap="round" stroke-linejoin="round"/>
</g>
<defs>
<clipPath id="clip0_1317_3938">
<rect width="24" height="24" fill="white"/>
</clipPath>
</defs>
</svg>
