<svg width="24" height="24" viewBox="0 0 24 24" fill="none" xmlns="http://www.w3.org/2000/svg">
<g id="icon">
<path id="Vector" d="M5 9C7.20914 9 9 7.20914 9 5C9 2.79086 7.20914 1 5 1C2.79086 1 1 2.79086 1 5C1 7.20914 2.79086 9 5 9Z" stroke="white" stroke-miterlimit="10" stroke-linecap="round" stroke-linejoin="round"/>
<path id="Vector_2" d="M19 16C21.2091 16 23 14.2091 23 12C23 9.79086 21.2091 8 19 8C16.7909 8 15 9.79086 15 12C15 14.2091 16.7909 16 19 16Z" stroke="white" stroke-miterlimit="10" stroke-linecap="round" stroke-linejoin="round"/>
<path id="Vector_3" d="M8 7.59998V19C8 20.7 6.7 22 5 22C3.3 22 2 20.7 2 19V7.59998" stroke="white" stroke-miterlimit="10" stroke-linecap="round" stroke-linejoin="round"/>
<path id="Vector_4" d="M22 14.6V19C22 20.7 20.7 22 19 22C17.3 22 16 20.7 16 19V14.6" stroke="white" stroke-miterlimit="10" stroke-linecap="round" stroke-linejoin="round"/>
<path id="Vector_5" d="M16 9.40002V5C16 3.3 17.3 2 19 2C19.8 2 20.6 2.30002 21.1 2.90002C21.6 3.50002 22 4.2 22 5V9.40002" stroke="white" stroke-miterlimit="10" stroke-linecap="round" stroke-linejoin="round"/>
</g>
</svg>
