<svg width="24" height="24" viewBox="0 0 24 24" fill="none" xmlns="http://www.w3.org/2000/svg">
<path d="M20.3 13.6C20.1 13.4 20 13.1 20 12.8C20 12.6 20 12.3 20 12.1C20 11.9 20 11.6 20 11.4C20 11.1 20.1 10.8 20.3 10.6L22 8.90002C22.3 8.60002 22.4 8.09995 22.2 7.69995L21 5.59998C20.8 5.19998 20.3 4.99998 19.9 5.09998L17.6 5.80005C17.3 5.90005 17 5.79998 16.7 5.59998C16.3 5.29998 15.9 5.10002 15.4 4.90002C15.1 4.80002 14.9 4.49995 14.8 4.19995L14.2 1.90002C14.1 1.50002 13.7 1.09998 13.2 1.09998H10.8C10.3 1.09998 9.9 1.40002 9.8 1.90002L9.2 4.19995C9.1 4.49995 8.9 4.70002 8.6 4.90002C8.1 5.10002 7.7 5.39998 7.3 5.59998C7 5.79998 6.7 5.80005 6.4 5.80005L4.1 5.09998C3.7 4.99998 3.2 5.19998 3 5.59998L1.8 7.69995C1.6 8.09995 1.6 8.60002 2 8.90002L3.7 10.6C3.9 10.8 4 11.1 4 11.4C4 11.6 4 11.9 4 12.1C4 12.3 4 12.6 4 12.8C4 13.1 3.9 13.4 3.7 13.6L2 15.3C1.7 15.6 1.6 16.1 1.8 16.5L3 18.6C3.2 19 3.7 19.2 4.1 19.1L6.4 18.4C6.7 18.3 7 18.4 7.3 18.6C7.7 18.9 8.1 19.1 8.6 19.3C8.9 19.4 9.1 19.7 9.2 20L9.8 22.3C9.9 22.7 10.3 23.1 10.8 23.1H13.2C13.7 23.1 14.1 22.8 14.2 22.3L14.8 20C14.9 19.7 15.1 19.5 15.4 19.3C15.9 19.1 16.3 18.8 16.7 18.6C17 18.4 17.3 18.4 17.6 18.4L19.9 19.1C20.3 19.2 20.8 19 21 18.6L22.2 16.5C22.4 16.1 22.4 15.6 22 15.3L20.3 13.6Z" stroke="white" stroke-miterlimit="10" stroke-linecap="round" stroke-linejoin="round"/>
<path d="M12 15C13.6569 15 15 13.6569 15 12C15 10.3431 13.6569 9 12 9C10.3431 9 9 10.3431 9 12C9 13.6569 10.3431 15 12 15Z" stroke="white" stroke-miterlimit="10" stroke-linecap="round" stroke-linejoin="round"/>
</svg>
