<svg width="24" height="24" viewBox="0 0 24 24" fill="none" xmlns="http://www.w3.org/2000/svg">
<g id="icon" clip-path="url(#clip0_935_4646)">
<path id="Vector" d="M23 12C23 10.3 21.8 8.89998 20.2 8.59998C21.1 7.19998 20.9 5.39995 19.7 4.19995C18.5 2.99995 16.7 2.89995 15.3 3.69995C15 2.09995 13.6 0.900024 11.9 0.900024C10.2 0.900024 8.80005 2.09995 8.50005 3.69995C7.10005 2.79995 5.30005 2.99995 4.10005 4.19995C2.90005 5.39995 2.80005 7.19998 3.60005 8.59998C2.00005 8.89998 0.800049 10.3 0.800049 12C0.800049 13.7 2.00005 15.1 3.60005 15.4C2.70005 16.8 2.90005 18.6 4.10005 19.8C5.30005 21 7.10005 21.1 8.50005 20.3C8.80005 21.9 10.2 23.1 11.9 23.1C13.6 23.1 15 21.9 15.3 20.3C16.7 21.2 18.5 21 19.7 19.8C20.9 18.6 21 16.8 20.2 15.4C21.8 15.1 23 13.7 23 12Z" stroke="white" stroke-linecap="round" stroke-linejoin="round"/>
<path id="Vector_2" d="M17 8.90002L11 14.9L8 11.9" stroke="white" stroke-miterlimit="10" stroke-linecap="round" stroke-linejoin="round"/>
</g>
<defs>
<clipPath id="clip0_935_4646">
<rect width="24" height="24" fill="white"/>
</clipPath>
</defs>
</svg>
