<svg width="24" height="24" viewBox="0 0 24 24" fill="none" xmlns="http://www.w3.org/2000/svg">
<g id="icon">
<path id="Vector" d="M13 14L11.3 21.7C11.1 22.4 11.7 23 12.4 23C12.8 23 13.2 22.8 13.4 22.4L19.9 10.3C20 10.1 20.1 9.89995 20.1 9.69995C20.1 8.79995 19.3 8.20002 18.5 8.40002L11.1 10L12.8 2.30005C13 1.60005 12.4 1 11.7 1C11.3 1 10.9 1.19998 10.7 1.59998L4.2 13.7C4.1 13.9 4 14.1 4 14.3C4 15.2 4.80001 15.8 5.60001 15.6L13 14Z" stroke="white" stroke-linecap="round" stroke-linejoin="round"/>
</g>
</svg>
