<svg width="16" height="16" viewBox="0 0 16 16" fill="none" xmlns="http://www.w3.org/2000/svg">
<g clip-path="url(#clip0_956_16193)">
<path d="M15.3333 4.99992V5.99992C15.3333 5.99992 15.3333 10.9999 9.26662 14.3333C8.86662 14.5333 8.46663 14.6666 7.99996 14.6666C7.53329 14.6666 7.1333 14.5333 6.7333 14.3333C0.66663 10.9999 0.666626 5.99992 0.666626 5.99992V4.99992C0.666626 2.99992 2.33329 1.33325 4.33329 1.33325C6.33329 1.33325 7.99996 2.99992 7.99996 4.99992C7.99996 2.99992 9.66663 1.33325 11.6666 1.33325C13.6666 1.33325 15.3333 2.99992 15.3333 4.99992Z" stroke="#FA0E0E" stroke-miterlimit="10" stroke-linecap="round" stroke-linejoin="round"/>
</g>
<path d="M4.60018 3.55786C4.46804 3.55786 4.32417 3.81014 4.25876 3.9017C3.99976 4.2643 3.8057 4.6871 3.64276 5.1009C3.55284 5.32927 3.50198 5.56772 3.41921 5.7983C3.41089 5.82148 3.3379 6.01249 3.33294 5.99513C3.31139 5.9197 3.24324 5.85857 3.19565 5.79587C2.98415 5.51724 2.82591 5.19407 2.66713 4.88341C2.59454 4.74139 2.56628 4.60961 2.56628 4.45209C2.56628 4.42599 2.58672 4.25482 2.63189 4.34517" stroke="#FA0E0E" stroke-width="3" stroke-linecap="round"/>
<path d="M5.6062 7.03516C6.42662 8.29997 7.10461 9.65111 8.04833 10.8356C8.2211 11.0525 8.40923 11.2807 8.65339 11.4213C8.71873 11.4589 8.75675 11.4272 8.80041 11.3727C8.99949 11.1238 9.22957 10.9269 9.47473 10.7226C9.63506 10.589 9.90465 10.4951 9.98016 10.2938" stroke="#FA0E0E" stroke-width="3" stroke-linecap="round"/>
<path d="M11.4892 5.21989C10.878 5.89217 10.4336 6.74636 9.98019 7.52594C9.7074 7.99499 9.46444 8.48255 9.18072 8.94505C9.15322 8.98989 9.0891 9.13458 9.01791 9.13458C8.94631 9.13458 8.93167 8.93841 8.93044 8.89402C8.92396 8.66088 8.71459 8.46866 8.60239 8.28166C8.42992 7.99422 8.40556 7.73858 8.40556 7.41173C8.40556 7.24444 8.27909 7.17516 8.1334 7.10555C7.78807 6.94056 7.37573 6.95978 7.02776 6.78966C6.87488 6.71491 6.69232 6.64699 6.65598 6.46525C6.5967 6.16889 6.5435 5.86884 6.49195 5.57102C6.46994 5.44384 6.43728 5.316 6.43728 5.18709C6.43728 5.12096 6.45512 5.03268 6.41419 4.97811C6.32546 4.85979 6.21346 4.77495 6.11045 4.67193C5.9848 4.54628 5.86718 4.40105 5.72651 4.29164C5.68736 4.26119 5.61002 4.22746 5.56249 4.21388C5.4691 4.1872 5.39614 4.09282 5.30005 4.06079" stroke="#FA0E0E" stroke-width="3" stroke-linecap="round"/>
<path d="M9.34593 6.2478C9.34593 5.65694 9.30967 5.08015 9.47715 4.50794C9.50897 4.39922 9.54276 4.2512 9.6193 4.16288C9.66524 4.10988 9.77927 4.10323 9.84043 4.08148C10.1744 3.96275 10.4989 3.83047 10.8428 3.7425C11.0278 3.69517 11.212 3.63088 11.3968 3.57969C11.5704 3.53164 11.7992 3.46071 11.98 3.50436C12.1759 3.55163 12.3457 3.59296 12.5122 3.71577C12.7154 3.86568 12.8239 4.16325 12.9107 4.38887C13.1269 4.95088 13.1513 5.62615 13.1513 6.22108C13.1513 6.33883 13.1606 6.46071 13.1391 6.57707C13.1031 6.77283 12.9946 6.93829 12.9095 7.11531C12.6561 7.64204 12.4617 8.17836 12.2668 8.7276C12.1988 8.91904 12.0784 9.07242 11.9606 9.23668C11.6478 9.67277 11.3802 10.1404 11.1125 10.6048C10.9707 10.8508 10.8448 11.1082 10.6934 11.3483C10.6048 11.4887 10.5177 11.6391 10.3799 11.7371C9.95206 12.0414 9.39581 12.113 8.90003 12.2389C8.48342 12.3447 8.08148 12.437 7.65224 12.437C7.52167 12.437 7.38571 12.4468 7.25615 12.4321C6.87346 12.3886 6.55135 11.9969 6.26229 11.776C6.13322 11.6774 6.02722 11.5544 5.90022 11.454C5.75124 11.3362 5.58855 11.2328 5.43245 11.1248C5.14786 10.9277 4.86937 10.7189 4.59532 10.5076C4.26234 10.2508 3.95124 9.91159 3.71567 9.56229C3.58912 9.37465 3.42946 9.15877 3.34389 8.94872C3.22379 8.65394 3.10768 8.3506 3.0049 8.05085C2.94713 7.88235 2.89644 7.70973 2.84574 7.53812C2.78306 7.32597 2.70463 7.10307 2.65863 6.88689C2.60642 6.64151 2.51494 6.44768 2.55657 6.19192C2.59105 5.98016 2.66861 5.72037 2.76312 5.5261C2.79171 5.46734 2.83512 5.35888 2.89434 5.32927" stroke="#FA0E0E" stroke-width="3" stroke-linecap="round"/>
<path d="M2.85066 5.19795C2.7896 5.10635 2.82879 4.90935 2.82879 4.80429C2.82879 4.64195 2.81718 4.47957 2.86281 4.32194C2.93366 4.07718 3.03442 3.84812 3.09609 3.60146C3.11124 3.54087 3.14028 3.19811 3.18964 3.18715C3.34541 3.15253 3.54382 3.18593 3.70358 3.18593C3.84533 3.18593 3.98708 3.18593 4.12883 3.18593C4.31703 3.18593 4.49379 3.09225 4.68772 3.12518C4.89901 3.16106 5.07175 3.32942 5.25512 3.4265C5.43369 3.52103 5.50803 3.59985 5.58439 3.77641C5.63832 3.90114 5.61011 4.07428 5.71925 4.1725C6.01427 4.43802 6.37171 4.62755 6.62928 4.93551C6.83087 5.17655 6.92425 5.45098 7.18088 5.66208C7.51764 5.93909 8.11007 6.10714 8.54167 6.00713C8.74291 5.9605 8.8534 5.79263 8.9657 5.63292C9.1363 5.39029 9.29864 5.14097 9.44197 4.88084C9.599 4.59587 9.66098 4.23579 9.89274 3.99511C10.0421 3.84001 10.2501 3.76418 10.4285 3.6452C10.5058 3.5937 10.5706 3.53145 10.6144 3.44837C10.6403 3.39929 10.6477 3.33522 10.7019 3.31715" stroke="#FA0E0E" stroke-width="3" stroke-linecap="round"/>
<path d="M10.7019 3.31724C10.7216 3.02106 10.9168 2.84763 11.1733 2.73769C11.4022 2.63959 11.7925 2.57472 12.0335 2.65143C12.1052 2.67423 12.148 2.7076 12.2 2.75956C12.2846 2.84414 12.3884 2.8934 12.4964 2.94424C12.8539 3.11245 13.1964 3.28743 13.5061 3.5408C13.6686 3.67375 13.8311 3.80262 13.9556 3.97333C14.0644 4.12231 14.0042 4.40114 14.0042 4.56868C14.0042 4.90516 13.9892 5.23917 13.9824 5.57469C13.9776 5.80907 13.9518 6.00216 13.8293 6.20405C13.6926 6.42936 13.5381 6.64865 13.3749 6.85529C13.2542 7.00802 13.0933 7.14832 12.9982 7.31941C12.7381 7.78773 12.6844 8.38202 12.5608 8.89404" stroke="#FA0E0E" stroke-width="3" stroke-linecap="round"/>
<path d="M13.7417 7.75684C13.7417 8.10434 13.5389 8.46975 13.404 8.77986C13.2502 9.13313 13.0722 9.43213 12.8123 9.71418C12.6381 9.90315 12.5239 10.0971 12.3858 10.3107C12.3274 10.4011 12.2698 10.5212 12.1623 10.561C11.9699 10.6323 11.827 10.6877 11.6544 10.8186C11.4773 10.953 11.3216 11.1048 11.1283 11.2208C10.9314 11.3389 10.7435 11.4019 10.5257 11.465C10.1957 11.5605 9.80571 11.635 9.52574 11.8465C9.39843 11.9427 9.31638 12.0406 9.23414 12.1794C8.99407 12.5845 8.8286 13.033 8.57561 13.4296C8.48745 13.5678 8.38792 13.6921 8.23542 13.5961C8.11979 13.5233 8.03427 13.4665 7.98999 13.3336" stroke="#FA0E0E" stroke-width="3" stroke-linecap="round"/>
<path d="M2.30383 5.65723V5.83218" stroke="#FA0E0E" stroke-width="3" stroke-linecap="round"/>
<defs>
<clipPath id="clip0_956_16193">
<rect width="16" height="16" fill="white"/>
</clipPath>
</defs>
</svg>
