<svg width="18" height="18" viewBox="0 0 18 18" fill="none" xmlns="http://www.w3.org/2000/svg">
<path d="M15 6.75C16.2426 6.75 17.25 5.74264 17.25 4.5C17.25 3.25736 16.2426 2.25 15 2.25C13.7574 2.25 12.75 3.25736 12.75 4.5C12.75 5.74264 13.7574 6.75 15 6.75Z" stroke="#D2D2D2" stroke-width="1.5" stroke-miterlimit="10" stroke-linecap="round" stroke-linejoin="round"/>
<path d="M7.5 15.75C8.74264 15.75 9.75 14.7426 9.75 13.5C9.75 12.2574 8.74264 11.25 7.5 11.25C6.25736 11.25 5.25 12.2574 5.25 13.5C5.25 14.7426 6.25736 15.75 7.5 15.75Z" stroke="#D2D2D2" stroke-width="1.5" stroke-miterlimit="10" stroke-linecap="round" stroke-linejoin="round"/>
<path d="M12.75 4.5H0.75" stroke="#D2D2D2" stroke-width="1.5" stroke-miterlimit="10" stroke-linecap="round" stroke-linejoin="round"/>
<path d="M0.75 13.5H5.25" stroke="#D2D2D2" stroke-width="1.5" stroke-miterlimit="10" stroke-linecap="round" stroke-linejoin="round"/>
<path d="M9.75 13.5H17.25" stroke="#D2D2D2" stroke-width="1.5" stroke-miterlimit="10" stroke-linecap="round" stroke-linejoin="round"/>
</svg>
