<svg width="24" height="24" viewBox="0 0 24 24" fill="none" xmlns="http://www.w3.org/2000/svg">
<g clip-path="url(#clip0_1466_15555)">
<path d="M15.4001 2.80005L14.8001 6.69995C14.7001 6.99995 14.7001 7.29998 14.8001 7.59998C14.9001 7.89998 15.0001 8.20002 15.2001 8.40002L17.1001 10.9C15.8001 13.6 13.6001 15.7 10.9001 17.1L8.50009 15.3C8.30009 15.1 8.00009 14.9 7.70009 14.8C7.40009 14.7 7.00009 14.7 6.70009 14.8L2.80009 15.4C2.30009 15.5 1.9001 15.7 1.6001 16.1C1.3001 16.5 1.1001 16.9 1.1001 17.4V21.2C1.1001 21.7 1.3001 22.1 1.6001 22.4C1.9001 22.7 2.40009 22.9 2.80009 22.9C8.20009 22.9 13.3001 20.8 17.1001 17C20.9001 13.2 23.0001 8.09995 23.0001 2.69995C23.0001 2.19995 22.8001 1.8 22.5001 1.5C22.2001 1.2 21.7001 1 21.3001 1H17.5001C17.0001 1 16.5001 1.2 16.2001 1.5C15.8001 1.9 15.5001 2.30005 15.4001 2.80005Z" stroke="white" stroke-miterlimit="10" stroke-linecap="round" stroke-linejoin="round"/>
</g>
<defs>
<clipPath id="clip0_1466_15555">
<rect width="24" height="24" fill="white"/>
</clipPath>
</defs>
</svg>
