<svg width="24" height="24" viewBox="0 0 24 24" fill="none" xmlns="http://www.w3.org/2000/svg">
<g id="icon" clip-path="url(#clip0_2_54)">
<path id="Vector" d="M5 23C2.8 23 1 21.2 1 19V3C1 1.9 1.9 1 3 1H7C8.1 1 9 1.9 9 3V19C9 21.2 7.2 23 5 23Z" stroke="white" stroke-miterlimit="10" stroke-linecap="round" stroke-linejoin="round"/>
<path id="Vector_2" d="M1 19C1 19.1 1 19.3 1 19.4C1 19.5 1.00001 19.7001 1.10001 19.8001C1.20001 19.9001 1.2 20.1 1.2 20.2C1.2 20.3 1.3 20.4 1.3 20.6C1.7 21.6 2.49999 22.3 3.39999 22.7C3.49999 22.8 3.6 22.8001 3.8 22.8001C3.9 22.8001 4.1 22.9 4.2 22.9C4.3 22.9 4.50001 22.9 4.60001 23C4.70001 23 4.9 23 5 23C5.3 23 5.5 23 5.8 22.9C5.9 22.9 6.1 22.8001 6.2 22.8001C6.3 22.8001 6.40001 22.7 6.60001 22.7C6.80001 22.6 7.1 22.5001 7.3 22.3001C7.5 22.2001 7.69999 22.0001 7.89999 21.8001L14.7 15L19.2 10.5C20 9.70002 20 8.49998 19.2 7.69998L16.4 4.90005C15.6 4.10005 14.4 4.10005 13.6 4.90005L9.10001 9.40005" stroke="white" stroke-miterlimit="10" stroke-linecap="round" stroke-linejoin="round"/>
<path id="Vector_3" d="M14.7 15H21.1C22.2 15 23.1 15.9 23.1 17V21C23.1 22.1 22.2 23 21.1 23H5.10001C5.00001 23 4.8 23 4.7 23C4.6 23 4.4 23 4.3 22.9C4.2 22.9 3.99999 22.8 3.89999 22.8C3.79999 22.8 3.7 22.7 3.5 22.7C2.5 22.3 1.79999 21.5 1.39999 20.6C1.29999 20.5 1.3 20.4 1.3 20.2C1.3 20.1 1.2 19.9 1.2 19.8C1.2 19.7 1.10001 19.5 1.10001 19.4C1.10001 19.3 1.10001 19.1 1.10001 19" stroke="white" stroke-miterlimit="10" stroke-linecap="round" stroke-linejoin="round"/>
<path id="Vector_4" d="M5 5V12" stroke="white" stroke-miterlimit="10" stroke-linecap="round" stroke-linejoin="round"/>
<path id="Vector_5" d="M5 19V18" stroke="white" stroke-miterlimit="10" stroke-linecap="round" stroke-linejoin="round"/>
</g>
<defs>
<clipPath id="clip0_2_54">
<rect width="24" height="24" fill="white"/>
</clipPath>
</defs>
</svg>
