<svg width="24" height="24" viewBox="0 0 24 24" fill="none" xmlns="http://www.w3.org/2000/svg">
<path d="M23 4V12C23 13.1 22.1 14 21 14H3C1.9 14 1 13.1 1 12V4C1 2.9 1.9 2 3 2H21C22.1 2 23 2.9 23 4Z" stroke="white" stroke-linecap="round" stroke-linejoin="round"/>
<path d="M19 18H5C3.9 18 3 17.1 3 16V14H21V16C21 17.1 20.1 18 19 18Z" stroke="white" stroke-linecap="round" stroke-linejoin="round"/>
<path d="M17 22H7C5.9 22 5 21.1 5 20V18H19V20C19 21.1 18.1 22 17 22Z" stroke="white" stroke-linecap="round" stroke-linejoin="round"/>
<path d="M12 11C13.6569 11 15 9.65685 15 8C15 6.34315 13.6569 5 12 5C10.3431 5 9 6.34315 9 8C9 9.65685 10.3431 11 12 11Z" stroke="white" stroke-linecap="round" stroke-linejoin="round"/>
<path d="M23 4V5.8C22.7 5.9 22.3 6 22 6C20.3 6 19 4.7 19 3C19 2.6 19.1 2.3 19.2 2H21C22.1 2 23 2.9 23 4Z" stroke="white" stroke-linecap="round" stroke-linejoin="round"/>
<path d="M23 10.2V12C23 13.1 22.1 14 21 14H19.2C19.1 13.7 19 13.3 19 13C19 11.3 20.3 10 22 10C22.3 10 22.7 10.1 23 10.2Z" stroke="white" stroke-linecap="round" stroke-linejoin="round"/>
<path d="M5 3C5 4.7 3.7 6 2 6C1.7 6 1.3 5.9 1 5.8V4C1 2.9 1.9 2 3 2H4.8C4.9 2.3 5 2.6 5 3Z" stroke="white" stroke-linecap="round" stroke-linejoin="round"/>
<path d="M5 13C5 13.3 4.9 13.7 4.8 14H3C1.9 14 1 13.1 1 12V10.2C1.3 10.1 1.7 10 2 10C3.7 10 5 11.3 5 13Z" stroke="white" stroke-linecap="round" stroke-linejoin="round"/>
</svg>
